<?xml version="1.0" encoding="UTF-8" ?>
<!DOCTYPE svg PUBLIC "-//W3C//DTD SVG 1.1//EN" "http://www.w3.org/Graphics/SVG/1.1/DTD/svg11.dtd">
<svg width="1042pt" height="1043pt" viewBox="0 0 1042 1043" version="1.1" xmlns="http://www.w3.org/2000/svg">
<g id="#473f39ff">
<path fill="#473f39" opacity="1.00" d=" M 777.82 9.99 C 779.31 6.98 782.15 5.02 784.63 2.87 C 785.67 7.61 784.09 12.30 784.20 17.05 C 784.19 20.39 784.54 23.72 785.13 27.00 C 791.10 28.69 796.92 30.97 803.06 32.03 C 805.10 32.21 806.66 33.60 808.45 34.45 C 810.26 34.65 812.16 34.31 813.89 35.10 C 821.12 37.81 828.27 40.96 835.92 42.28 C 836.53 43.55 837.16 44.81 837.84 46.07 C 839.77 44.07 842.00 42.30 843.46 39.89 C 840.48 40.25 837.48 40.77 834.48 40.57 C 834.33 40.31 834.05 39.78 833.91 39.52 C 840.03 36.82 846.76 33.62 853.59 35.52 C 854.87 35.95 856.85 35.86 857.09 37.58 C 850.85 38.98 845.28 42.84 840.95 47.44 C 845.50 51.68 850.64 55.55 853.79 61.02 C 854.91 63.22 857.35 64.43 858.19 66.81 C 859.31 69.35 860.04 72.05 860.32 74.82 C 860.82 74.65 861.81 74.32 862.30 74.16 C 863.94 79.04 865.85 83.85 866.85 88.92 C 867.51 91.63 867.67 95.01 870.36 96.61 C 877.23 101.19 884.60 106.40 887.66 114.42 C 882.72 112.33 877.59 110.73 872.73 108.46 C 871.19 108.11 869.62 108.02 868.10 107.82 C 868.07 108.51 868.01 109.89 867.98 110.58 C 868.18 114.81 867.29 119.14 868.29 123.29 C 867.02 124.32 866.68 122.40 866.47 121.51 C 866.39 119.05 866.51 116.60 866.50 114.14 C 866.96 117.98 865.14 122.25 867.10 125.78 C 865.60 139.41 861.68 152.92 863.02 166.74 C 867.78 168.14 871.87 171.35 874.83 175.29 C 876.07 176.34 874.66 178.86 873.04 178.12 C 869.96 177.56 867.03 176.44 863.98 175.83 C 862.03 175.39 860.06 175.01 858.07 175.08 C 857.92 176.95 858.16 178.83 858.41 180.69 C 857.52 191.80 855.80 202.85 853.76 213.80 C 852.88 217.34 852.82 221.01 853.09 224.63 L 853.86 224.90 C 860.05 227.50 865.21 232.46 869.00 237.97 C 865.04 237.37 861.12 236.60 857.19 235.89 C 855.22 235.55 853.24 235.32 851.27 235.11 C 850.29 237.99 849.14 240.87 849.08 243.97 C 847.90 256.05 846.01 268.10 843.70 279.99 C 842.86 280.77 842.34 282.54 843.84 282.95 C 847.51 284.86 850.21 288.08 853.16 290.91 C 855.62 292.93 855.90 296.30 856.93 299.13 C 853.91 298.02 850.90 296.92 847.87 295.88 C 845.84 294.96 843.77 294.16 841.67 293.46 C 841.48 295.02 841.31 296.58 841.21 298.15 C 841.13 301.14 840.76 304.11 840.00 307.00 C 838.70 312.36 838.25 317.90 836.79 323.24 C 836.17 325.46 835.63 327.71 835.11 329.96 C 835.92 329.70 836.75 329.46 837.59 329.24 C 841.37 330.05 844.32 333.33 847.67 335.30 C 850.51 337.25 853.53 339.09 855.56 341.98 C 854.46 345.58 850.72 343.92 848.92 341.94 C 844.06 339.92 837.96 337.43 833.19 341.03 C 839.51 347.06 846.55 352.35 853.78 357.24 C 857.36 359.26 859.58 362.87 862.96 365.19 C 874.17 375.57 885.60 385.79 895.51 397.46 C 900.95 403.33 905.13 410.35 911.38 415.46 C 914.75 422.17 919.97 427.70 923.48 434.33 C 923.53 434.40 923.62 434.55 923.66 434.62 C 928.05 440.87 931.74 447.58 934.81 454.57 C 941.12 466.09 945.40 478.55 949.38 491.02 C 952.71 501.69 955.37 512.57 957.23 523.59 C 959.43 536.59 959.90 549.78 960.79 562.90 C 961.13 577.99 959.39 593.02 958.69 608.07 C 956.91 620.10 954.58 632.06 951.61 643.85 C 949.44 651.87 947.34 660.01 943.60 667.45 C 941.74 680.46 935.35 692.16 931.98 704.73 C 941.28 712.02 951.28 718.32 960.98 725.05 C 974.07 734.90 986.90 745.12 1000.19 754.72 C 1003.71 756.58 1004.33 762.48 1009.25 761.81 C 1011.32 764.74 1013.46 767.63 1015.83 770.34 L 1015.90 771.20 C 1015.91 772.51 1016.56 773.15 1017.88 773.11 C 1019.62 778.98 1017.75 785.17 1016.18 790.87 C 1013.49 800.23 1005.99 807.81 996.97 811.26 C 992.25 813.39 986.96 812.50 981.96 812.69 C 973.75 812.85 965.79 810.57 958.17 807.73 C 944.29 802.73 931.21 795.80 918.23 788.85 C 918.42 788.38 918.82 787.42 919.02 786.95 C 909.69 785.81 902.55 779.16 894.84 774.44 C 889.03 779.99 885.28 787.25 881.20 794.07 C 880.56 793.65 879.29 792.80 878.65 792.37 C 878.77 793.27 878.99 795.07 879.11 795.96 C 874.64 801.87 870.79 808.25 865.81 813.75 C 858.04 822.70 850.02 831.42 842.36 840.45 C 830.33 851.82 818.73 863.93 804.56 872.69 C 796.69 877.58 789.93 883.97 783.10 890.17 C 767.22 904.69 750.70 918.52 733.36 931.27 C 729.60 934.26 725.26 936.56 722.08 940.22 C 714.89 943.74 708.56 948.69 701.66 952.71 C 695.99 955.68 690.28 958.59 684.69 961.73 C 643.17 985.35 595.77 998.81 547.95 999.57 C 534.65 999.44 521.31 999.19 508.09 997.50 C 492.13 995.58 476.39 992.10 460.91 987.82 C 457.65 986.97 454.44 985.68 451.03 985.69 C 446.86 985.79 442.88 987.20 439.04 988.70 C 426.66 993.39 414.51 998.66 402.02 1003.04 C 393.49 1005.77 387.84 1014.01 378.87 1015.78 C 368.31 1018.69 357.73 1013.70 347.09 1014.71 C 336.82 1015.74 326.43 1015.84 316.16 1015.21 C 312.35 1013.45 308.22 1012.44 304.03 1013.34 C 298.23 1012.80 292.64 1010.81 286.97 1009.48 C 282.45 1007.99 277.33 1007.73 273.57 1004.53 C 270.50 1002.09 266.18 1003.09 263.05 1000.83 C 257.90 997.43 251.82 995.73 246.97 991.89 C 243.52 989.34 239.75 987.27 236.27 984.78 C 228.42 977.77 219.83 971.44 213.34 963.06 C 211.88 960.79 209.90 958.94 208.26 956.83 C 206.65 954.22 205.33 951.41 204.20 948.59 C 208.84 952.42 212.01 957.67 216.66 961.51 C 221.44 968.90 228.56 974.29 234.93 980.21 C 244.95 986.65 254.81 993.48 265.77 998.27 C 272.07 1001.20 278.84 1002.95 285.11 1005.94 C 287.72 1007.76 291.16 1006.66 293.95 1008.16 C 307.63 1012.44 323.97 1014.38 336.53 1006.04 C 322.48 996.16 311.61 982.23 304.25 966.81 C 298.36 954.27 294.14 940.87 292.37 927.11 C 290.79 915.45 290.37 903.68 289.58 891.96 C 289.88 885.47 284.57 880.85 281.25 875.85 C 257.73 843.06 242.08 804.25 238.48 763.92 C 236.42 737.50 238.17 710.72 244.26 684.90 C 248.22 663.64 257.09 643.79 264.32 623.54 C 265.42 620.10 265.12 616.46 265.13 612.92 C 264.11 595.29 271.49 578.74 277.33 562.51 C 283.08 545.78 289.38 529.18 293.38 511.91 C 297.33 498.56 301.15 485.05 307.47 472.58 C 311.85 463.74 320.22 456.73 330.02 454.89 C 334.87 453.89 339.88 455.37 343.98 457.99 C 350.08 462.07 355.12 468.03 357.63 474.96 C 362.77 489.59 359.89 505.23 358.82 520.27 C 367.76 517.74 376.80 515.54 385.94 513.83 C 387.33 513.55 388.77 513.30 390.02 512.57 C 381.41 494.54 378.19 474.62 374.50 455.16 C 370.02 427.74 367.84 399.02 375.92 372.04 C 378.22 365.41 379.83 358.47 383.32 352.33 C 385.64 347.91 387.91 342.86 392.64 340.56 C 390.79 344.94 388.29 349.02 386.43 353.40 C 382.19 363.03 379.11 373.13 376.45 383.30 C 371.26 406.56 373.36 430.82 378.35 453.93 C 380.75 468.70 383.29 483.55 388.35 497.69 C 390.01 502.26 390.96 507.19 393.65 511.32 C 394.53 512.89 396.52 512.84 398.06 513.16 C 405.42 514.15 413.13 513.87 420.03 517.00 C 426.15 519.74 431.89 523.63 436.26 528.76 C 443.08 537.70 448.88 548.76 447.10 560.37 C 444.53 558.00 444.46 554.27 443.65 551.11 C 441.55 541.07 437.29 530.49 428.26 524.77 C 419.77 519.67 409.92 516.44 399.95 516.61 C 387.66 516.95 375.00 517.58 363.60 522.65 C 361.68 523.61 359.49 524.33 358.02 525.96 C 356.01 530.15 355.63 534.89 354.42 539.34 C 351.28 551.70 347.44 564.09 341.00 575.17 C 340.71 570.28 342.94 565.83 344.34 561.28 C 350.69 541.74 355.38 521.53 356.57 500.97 C 356.73 493.86 357.67 486.52 355.43 479.62 C 353.42 472.08 348.60 465.10 341.60 461.43 C 338.66 459.80 334.78 458.66 331.80 460.83 C 328.18 462.83 326.56 467.91 321.98 468.06 C 323.57 465.73 325.32 463.52 327.01 461.26 C 319.05 461.76 313.69 468.84 310.33 475.37 C 301.36 494.37 296.65 514.96 289.66 534.70 C 283.96 549.28 281.05 564.77 275.44 579.39 C 270.77 591.30 267.79 604.18 269.11 617.03 C 269.76 624.40 272.94 631.62 278.27 636.80 C 281.84 640.24 287.42 640.56 291.90 638.97 C 299.10 636.10 305.39 631.22 310.29 625.24 C 314.12 621.04 316.92 616.01 320.90 611.95 C 319.93 617.91 316.20 622.89 312.21 627.23 C 306.83 632.93 301.25 639.01 293.61 641.60 C 288.52 643.57 282.59 642.79 277.98 639.96 C 273.22 636.74 270.76 631.38 267.35 626.95 C 264.08 631.66 261.62 636.94 260.52 642.60 C 258.55 649.73 259.74 657.15 259.21 664.43 C 257.99 662.82 256.77 661.22 255.49 659.67 C 248.35 681.86 242.66 704.65 240.57 727.91 C 240.10 735.07 239.28 742.27 240.36 749.41 C 241.18 767.93 242.34 786.79 248.62 804.41 C 252.47 815.92 257.65 826.92 263.31 837.64 C 271.33 852.54 279.08 867.99 290.81 880.38 C 292.16 874.72 292.48 868.63 295.42 863.49 C 300.05 856.90 306.23 851.62 311.83 845.88 C 322.12 835.02 334.02 825.90 345.80 816.75 C 348.83 814.60 352.07 811.86 356.04 812.23 C 366.52 812.58 375.66 820.74 378.43 830.65 C 382.18 844.15 382.03 858.86 377.22 872.08 C 376.25 874.64 375.29 877.31 373.40 879.37 C 367.33 885.51 359.80 889.88 352.93 895.03 C 350.83 896.25 351.16 898.91 350.86 900.99 C 350.28 910.58 350.64 920.42 353.51 929.65 C 355.99 936.04 363.30 937.85 368.21 941.84 C 378.25 949.75 389.63 955.73 401.40 960.61 C 409.13 963.65 415.98 968.54 423.89 971.18 C 434.23 974.75 444.11 980.46 455.24 981.08 C 470.48 988.27 487.40 990.30 503.89 992.72 C 555.19 1000.37 608.42 992.54 655.88 971.87 C 687.45 958.31 716.96 940.22 744.03 919.10 C 755.03 910.25 766.52 901.75 776.11 891.33 C 770.80 894.26 765.48 897.67 759.32 898.39 C 764.84 894.02 771.34 891.06 777.20 887.16 C 791.84 878.19 806.18 868.52 818.70 856.71 C 832.48 844.18 845.83 831.13 858.00 817.01 C 878.15 793.62 894.03 766.85 907.05 738.93 C 908.62 739.24 910.23 740.45 911.87 739.86 C 912.73 737.98 913.14 735.94 913.85 734.02 C 915.56 728.99 918.90 724.77 921.07 719.96 C 934.88 687.12 947.03 653.34 953.21 618.15 C 955.83 604.92 955.98 591.40 956.57 577.98 C 957.47 566.97 956.28 555.93 955.71 544.93 C 955.49 532.08 952.88 519.42 950.02 506.94 C 945.32 487.59 938.22 468.81 928.75 451.29 C 920.33 435.22 912.80 418.22 900.03 405.01 C 882.33 387.37 865.05 369.07 844.82 354.26 C 839.88 350.63 834.97 346.83 829.41 344.17 C 826.52 341.60 823.19 339.46 819.38 338.61 C 797.90 334.18 775.81 333.38 753.96 334.70 C 746.05 335.99 738.00 335.45 730.05 336.40 C 714.03 337.58 698.13 340.63 682.92 345.85 C 672.02 349.36 660.83 353.41 652.14 361.14 C 642.57 370.50 633.23 380.82 628.58 393.61 C 623.97 405.47 624.28 419.53 630.74 430.66 C 640.23 446.11 656.67 458.10 674.98 460.00 C 681.82 460.85 688.25 457.90 694.76 456.34 C 690.36 463.13 681.37 463.74 674.08 463.09 C 665.02 462.78 656.86 458.49 649.02 454.38 C 633.96 463.32 618.19 472.00 600.76 475.15 C 590.89 475.39 579.45 475.42 571.76 468.25 C 566.47 462.23 567.05 453.56 567.51 446.10 C 568.95 436.63 572.24 427.59 575.51 418.63 C 576.91 414.56 578.34 410.37 578.23 406.02 C 577.96 400.18 576.07 394.60 575.25 388.85 C 577.33 389.93 577.75 392.41 578.56 394.41 C 579.92 398.16 580.92 402.30 583.75 405.28 C 593.56 413.59 609.65 415.51 619.84 406.84 C 623.21 403.55 623.61 398.49 625.41 394.33 C 626.53 391.30 628.05 388.27 627.66 384.93 C 631.07 382.84 632.72 379.10 634.92 375.94 C 636.76 373.20 638.69 370.51 640.59 367.80 C 636.15 364.88 630.67 362.50 628.98 356.97 C 634.48 357.18 639.88 358.44 645.39 358.56 C 649.05 347.07 651.63 335.17 652.02 323.09 C 647.42 320.49 642.90 317.64 637.95 315.79 C 633.30 315.34 628.64 316.13 624.05 316.80 C 613.03 318.81 602.12 321.42 591.19 323.85 C 585.50 327.50 578.84 328.94 572.74 331.68 C 562.51 337.00 552.17 342.95 545.04 352.26 C 543.68 352.02 542.16 350.67 540.88 351.78 C 537.44 354.08 534.36 356.88 531.05 359.37 C 519.10 368.99 509.45 381.12 500.30 393.36 C 491.64 404.80 484.39 417.29 478.55 430.40 C 477.65 432.56 477.01 434.96 477.66 437.29 C 479.58 444.67 481.08 452.18 481.79 459.79 C 480.64 460.18 479.50 460.58 478.36 460.98 C 478.18 454.31 478.14 447.47 475.91 441.09 C 472.69 431.13 466.27 422.72 461.36 413.59 C 455.30 401.81 449.40 389.92 442.25 378.75 C 436.98 369.61 431.99 360.14 424.60 352.48 C 420.60 348.41 416.54 343.55 410.61 342.51 C 405.31 341.67 399.97 340.96 394.83 339.34 C 404.72 334.85 416.03 339.66 423.44 346.63 C 432.16 354.52 437.27 365.37 444.70 374.35 C 448.83 382.43 453.78 390.08 457.54 398.36 C 460.15 402.24 460.03 407.27 462.98 410.94 C 466.04 414.60 467.82 419.07 470.20 423.15 C 471.34 425.09 472.44 427.05 473.69 428.93 C 475.59 427.54 476.29 425.02 477.70 423.18 C 479.80 419.96 480.73 416.15 483.08 413.06 C 488.57 404.19 493.46 394.75 500.88 387.30 C 503.31 385.66 503.20 382.30 505.41 380.44 C 510.24 375.87 513.56 369.91 518.83 365.77 C 526.08 359.65 532.65 352.70 540.53 347.36 C 548.27 340.78 557.56 336.44 566.09 331.04 C 569.73 330.09 572.84 328.00 576.13 326.28 C 583.57 323.39 591.15 320.84 599.01 319.31 C 603.26 317.90 608.18 318.87 611.78 315.73 C 616.12 316.48 620.08 314.88 624.14 313.74 C 627.69 313.33 631.26 313.08 634.81 312.66 C 634.35 311.44 633.90 310.22 633.43 309.01 C 633.17 308.39 632.66 307.15 632.40 306.54 C 634.25 307.11 636.14 307.61 637.94 308.36 C 638.41 308.55 639.37 308.92 639.85 309.11 C 641.86 308.75 643.80 309.78 645.74 310.19 C 648.25 310.87 650.83 311.23 653.41 311.52 C 654.03 309.06 654.61 306.58 655.04 304.08 C 655.82 299.76 656.57 295.44 657.34 291.13 C 658.33 284.62 658.98 278.04 659.15 271.47 C 658.41 269.85 656.38 269.24 654.96 268.32 C 651.51 266.14 646.52 264.95 645.47 260.48 C 644.67 258.49 643.14 256.92 641.92 255.21 C 644.83 255.96 647.76 256.69 650.70 257.33 C 653.89 258.14 657.29 258.40 660.43 257.22 C 661.93 256.63 663.71 255.79 664.03 254.01 C 666.14 245.46 667.97 236.80 668.93 228.03 C 669.36 224.41 669.37 220.73 670.20 217.16 C 670.60 215.06 670.86 212.95 671.16 210.84 C 669.81 209.99 668.50 209.10 667.15 208.27 C 664.55 206.66 662.43 203.51 658.92 204.58 C 655.90 202.13 654.09 198.51 652.57 195.01 C 659.30 196.97 667.25 198.97 673.84 195.74 C 678.84 182.37 677.75 167.79 680.29 153.92 C 676.34 151.92 672.10 150.67 668.00 149.09 C 665.67 147.37 664.17 144.74 662.44 142.46 C 666.61 143.13 670.82 143.60 675.04 143.80 C 678.07 143.86 680.84 141.80 682.22 139.18 C 684.44 134.97 684.47 130.07 685.85 125.59 C 690.13 116.66 689.69 106.39 693.00 97.14 C 693.69 95.51 694.34 93.86 694.89 92.17 C 694.24 91.96 693.59 91.76 692.96 91.58 C 685.19 90.47 677.53 84.36 676.20 76.39 C 678.83 77.02 680.86 78.80 682.91 80.45 C 687.88 80.10 693.45 81.87 697.96 79.19 C 700.66 77.75 700.86 74.55 702.25 72.17 C 703.64 71.16 705.34 70.76 706.91 70.12 L 706.16 69.18 C 705.47 69.09 704.09 68.91 703.40 68.83 C 709.25 63.71 712.43 56.36 718.16 51.16 C 720.62 48.85 722.87 46.33 725.40 44.11 C 726.63 43.53 726.66 42.86 725.50 42.10 C 721.36 35.83 717.30 28.81 717.18 21.10 C 719.69 19.84 721.33 22.68 723.04 24.03 C 727.21 28.33 731.50 32.63 736.96 35.26 C 737.78 36.30 739.21 36.31 740.11 35.33 C 743.98 33.54 747.54 30.78 751.91 30.32 C 755.22 30.16 757.75 27.71 760.93 27.07 C 763.95 26.41 767.03 25.97 770.07 25.31 C 772.54 20.15 775.13 15.04 777.82 9.99 M 765.08 61.24 C 756.12 65.95 747.49 72.12 742.20 80.94 C 739.25 85.96 735.50 90.46 732.44 95.41 C 728.56 101.36 725.92 108.00 723.61 114.69 C 715.80 138.11 714.40 162.97 709.10 186.97 C 706.04 207.00 702.76 226.99 699.74 247.02 C 698.61 254.68 697.92 262.40 696.61 270.03 C 694.65 282.35 692.26 294.60 690.66 306.97 C 688.10 318.17 686.10 329.56 685.90 341.08 C 699.67 336.48 714.11 334.76 728.38 332.55 C 751.58 331.31 774.87 331.06 798.06 332.40 C 804.08 332.59 810.03 334.04 816.05 333.97 C 817.71 332.95 818.31 330.80 818.82 329.01 C 820.06 321.73 820.42 314.33 821.85 307.08 C 826.70 281.54 828.78 255.57 833.39 230.00 C 835.00 221.73 835.76 213.33 837.00 205.00 C 840.38 180.66 843.75 156.32 847.17 131.98 C 849.55 121.82 848.39 111.34 848.64 101.01 C 849.05 86.91 842.17 73.50 832.57 63.54 C 825.23 59.10 817.63 54.57 809.00 53.25 C 794.05 51.07 778.13 53.36 765.08 61.24 M 715.99 91.99 C 711.84 99.83 709.74 108.52 707.74 117.09 C 710.39 119.06 714.47 118.33 717.71 118.74 C 722.21 104.50 729.36 91.23 737.92 79.04 C 735.02 76.02 731.35 73.97 727.61 72.18 C 722.15 77.73 719.50 85.21 715.99 91.99 M 581.17 406.85 C 580.07 409.89 579.87 413.14 579.86 416.35 C 583.12 416.29 586.29 415.37 589.24 414.02 C 588.30 410.21 584.33 408.50 581.17 406.85 M 609.03 416.18 C 603.39 416.99 597.70 415.98 592.06 416.10 C 587.72 417.54 583.50 419.42 578.93 420.06 C 576.93 425.68 574.86 431.29 572.89 436.93 C 570.60 443.06 571.44 449.69 571.34 456.09 C 571.32 460.35 572.62 465.11 576.58 467.34 C 581.65 470.00 587.10 472.65 592.98 472.39 C 602.45 472.80 612.29 470.71 620.17 465.26 C 621.40 464.74 621.47 463.50 621.57 462.36 C 627.83 462.22 635.20 460.80 638.95 455.27 C 636.72 454.75 633.43 455.48 632.63 452.65 C 636.42 451.94 640.25 451.34 644.03 450.55 C 642.13 448.27 639.51 446.75 637.45 444.63 C 635.43 442.91 633.96 440.59 631.72 439.14 C 631.36 443.70 630.63 448.22 630.48 452.79 C 630.91 452.78 631.78 452.74 632.21 452.72 C 631.32 453.48 630.72 455.14 629.26 454.66 C 625.54 448.95 628.86 442.20 628.42 436.01 C 628.65 432.61 626.53 429.84 625.30 426.86 C 623.24 422.01 622.70 416.72 621.28 411.70 L 620.79 411.37 C 616.84 412.89 613.28 415.50 609.03 416.18 M 355.99 937.79 C 356.76 941.25 357.04 945.01 358.99 948.07 C 360.77 946.16 360.79 943.52 361.09 941.10 C 359.46 939.88 357.80 938.71 355.99 937.79 M 415.11 971.75 C 412.42 980.77 408.30 989.32 403.46 997.38 C 404.37 997.55 405.25 997.46 406.12 997.12 C 417.93 993.26 429.06 987.54 440.98 984.01 C 442.11 983.42 444.35 983.68 444.36 981.90 C 442.55 980.54 440.11 980.49 438.04 979.74 C 430.23 977.60 423.15 972.93 415.11 971.75 Z" />
<path fill="#473f39" opacity="1.00" d=" M 621.77 332.69 C 621.91 330.27 624.37 331.53 625.68 332.22 C 627.26 336.01 626.57 340.36 624.96 344.02 C 622.49 349.17 618.28 353.23 613.96 356.86 C 601.85 366.89 586.36 372.55 570.74 373.47 C 567.63 372.30 565.26 369.42 561.77 368.99 C 556.34 366.69 556.91 358.93 559.76 354.78 C 567.36 345.37 578.57 339.41 590.06 336.15 C 599.29 334.63 609.88 333.35 618.02 339.00 C 619.59 341.07 619.55 344.03 620.47 346.43 C 623.02 342.46 623.35 337.10 621.77 332.69 Z" />
<path fill="#473f39" opacity="1.00" d=" M 540.76 354.14 C 541.62 353.74 542.50 353.37 543.39 353.03 C 544.03 357.12 544.86 361.19 546.09 365.16 C 546.10 366.34 546.99 368.42 545.30 368.85 C 543.50 366.09 542.22 363.04 541.13 359.95 C 540.83 358.05 540.10 356.04 540.76 354.14 Z" />
<path fill="#473f39" opacity="1.00" d=" M 744.01 422.05 C 752.56 415.73 763.47 412.90 774.02 414.14 C 784.85 415.10 795.07 419.29 804.57 424.38 C 805.93 425.16 807.16 426.23 807.74 427.77 L 806.20 427.19 C 792.93 418.72 776.60 414.46 760.95 417.16 C 757.08 417.97 753.05 418.62 749.65 420.74 C 757.73 420.85 765.95 420.85 773.81 423.07 C 779.18 424.41 783.77 427.74 788.01 431.18 C 796.01 437.83 802.04 447.41 802.80 457.96 C 804.35 474.52 789.71 490.69 773.03 490.57 C 761.58 491.41 750.47 486.40 741.97 479.01 C 739.19 476.78 737.11 473.80 734.17 471.77 C 736.61 479.76 741.72 486.58 747.58 492.41 C 758.15 503.69 773.79 508.93 788.95 509.69 C 798.84 510.01 809.70 509.42 817.65 502.76 C 825.74 496.06 832.98 486.81 833.49 475.91 C 834.57 462.58 830.04 448.81 821.41 438.63 C 821.71 438.59 822.32 438.50 822.62 438.46 C 824.89 441.63 826.76 445.35 830.83 446.47 C 830.31 446.53 829.26 446.64 828.73 446.70 C 833.48 456.01 836.74 466.37 836.13 476.92 C 835.77 483.32 833.85 489.68 830.17 494.96 C 825.65 501.41 820.06 507.52 812.72 510.73 C 808.72 512.53 804.28 512.70 800.00 513.10 C 784.74 514.23 768.76 510.85 756.42 501.48 C 749.34 497.12 744.28 490.40 738.66 484.44 C 730.80 474.12 725.96 461.03 727.33 447.94 C 727.98 437.11 735.57 428.15 744.01 422.05 M 785.25 438.22 C 785.12 439.26 786.15 440.88 784.76 441.38 C 783.65 442.02 782.43 442.80 782.47 444.25 C 782.08 447.35 781.42 451.62 784.77 453.38 C 787.74 453.89 791.08 454.18 793.89 452.87 C 796.48 450.80 796.39 447.18 796.84 444.19 C 793.15 441.86 789.20 440.02 785.25 438.22 Z" />
<path fill="#473f39" opacity="1.00" d=" M 313.01 487.02 C 314.25 482.16 315.65 477.08 318.68 473.01 C 318.58 477.87 318.91 485.51 313.01 487.02 Z" />
<path fill="#473f39" opacity="1.00" d=" M 581.96 629.02 C 588.48 623.45 595.63 618.24 604.00 615.91 C 608.00 615.24 612.10 615.56 616.15 615.59 C 620.81 617.32 624.96 620.12 629.05 622.89 C 632.04 628.61 635.41 634.40 636.01 640.96 C 636.78 648.61 636.13 656.31 636.01 663.98 C 653.44 661.51 671.87 661.66 688.28 668.74 C 696.35 672.00 703.35 677.40 709.51 683.47 C 711.07 685.10 712.27 687.51 711.33 689.76 C 706.59 685.45 702.77 679.97 697.00 676.91 C 678.55 666.91 656.48 664.58 636.07 668.88 C 634.33 668.95 633.81 670.81 633.09 672.06 C 629.27 680.00 626.74 688.59 621.90 696.03 C 614.50 707.74 607.80 720.17 597.92 730.05 C 604.22 716.23 614.04 704.44 621.06 691.03 C 628.04 678.13 632.80 663.74 632.72 648.96 C 633.05 640.08 630.57 630.63 623.88 624.43 C 621.57 622.52 618.88 620.99 615.98 620.23 C 608.44 625.01 603.87 633.44 595.74 637.48 L 595.80 636.08 C 600.66 629.84 606.88 624.84 611.79 618.66 C 607.89 619.29 603.85 619.84 600.42 621.94 C 592.32 624.94 585.87 630.96 579.73 636.84 C 567.53 649.32 556.21 662.65 545.65 676.54 C 540.00 683.55 534.75 691.06 527.53 696.58 C 516.64 705.93 504.89 714.82 497.18 727.16 C 490.19 737.78 484.43 750.01 484.92 763.02 C 485.00 769.44 489.88 774.60 495.34 777.35 C 501.83 781.81 509.93 782.13 517.21 784.53 C 513.50 785.11 509.74 785.24 505.99 785.26 C 504.79 800.12 507.20 815.28 512.84 829.09 C 517.57 840.34 528.29 850.13 541.08 849.89 C 537.75 851.39 533.87 851.37 530.40 850.44 C 524.47 848.69 519.73 844.55 514.42 841.58 C 513.79 839.37 512.93 837.23 511.78 835.25 C 507.45 827.68 504.76 819.23 503.45 810.63 C 502.16 802.21 502.77 793.69 502.70 785.22 C 494.30 781.38 485.59 775.95 482.16 766.92 C 478.40 751.91 486.11 737.17 493.65 724.66 C 499.23 715.75 507.64 709.24 515.54 702.52 C 528.52 691.80 538.71 678.27 549.23 665.25 C 559.42 652.57 569.29 639.38 581.96 629.02 Z" />
<path fill="#473f39" opacity="1.00" d=" M 885.14 636.21 C 890.92 634.47 897.35 633.65 903.21 635.70 C 914.03 639.33 922.09 649.11 925.03 659.97 C 929.96 682.03 925.76 705.32 916.87 725.82 C 915.54 729.51 912.31 732.21 911.53 736.13 C 911.17 737.51 909.21 736.64 908.34 736.42 C 916.26 716.20 924.35 695.08 922.70 672.95 C 922.85 661.38 917.69 649.58 908.24 642.69 C 905.84 640.85 903.13 639.41 900.19 638.71 C 893.20 638.31 886.28 640.19 879.99 643.13 C 864.05 649.99 848.65 658.29 834.79 668.79 C 810.53 687.69 789.33 710.40 771.27 735.26 C 766.15 742.40 764.24 751.14 760.83 759.10 L 759.85 759.61 C 759.55 757.39 758.97 755.03 760.05 752.92 C 763.83 742.85 769.00 733.35 774.76 724.29 C 783.40 716.01 789.75 705.69 797.91 696.96 C 806.52 687.89 815.07 678.70 824.79 670.78 C 838.34 659.41 853.50 649.95 869.65 642.73 C 874.77 640.45 880.15 638.80 885.14 636.21 Z" />
<path fill="#473f39" opacity="1.00" d=" M 268.87 681.04 C 273.43 680.99 277.68 682.86 281.95 684.23 C 283.31 684.56 284.15 685.73 285.03 686.73 C 279.05 687.98 273.57 684.23 268.87 681.04 Z" />
<path fill="#473f39" opacity="1.00" d=" M 713.82 691.03 C 715.35 691.64 716.88 692.26 718.42 692.88 C 724.47 708.65 728.86 725.35 728.60 742.36 C 727.81 742.15 726.22 741.71 725.43 741.50 C 725.20 734.05 725.06 726.59 724.28 719.19 C 722.75 709.77 717.74 701.48 713.74 692.97 C 713.76 692.49 713.80 691.52 713.82 691.03 Z" />
<path fill="#473f39" opacity="1.00" d=" M 556.43 771.40 C 563.29 766.76 569.82 761.64 575.82 755.94 C 574.54 758.79 572.26 760.99 570.11 763.19 C 564.03 769.24 556.72 773.95 548.96 777.56 C 550.84 774.85 553.88 773.37 556.43 771.40 Z" />
<path fill="#473f39" opacity="1.00" d=" M 192.15 877.32 C 194.64 876.67 197.68 875.27 200.02 877.02 C 202.16 879.90 202.86 883.60 203.46 887.09 C 205.44 902.58 204.46 918.23 204.58 933.79 C 204.41 938.38 203.43 942.90 201.91 947.24 C 197.94 946.08 193.93 945.07 189.86 944.37 C 176.92 941.00 164.14 936.69 152.13 930.79 C 147.41 927.35 141.79 922.53 142.45 916.07 C 142.80 911.96 146.83 910.04 149.54 907.58 C 162.84 896.38 175.40 883.28 192.15 877.32 M 166.57 906.52 C 162.54 910.06 157.69 914.27 157.60 920.03 C 158.92 925.24 164.64 927.06 168.97 929.10 C 177.29 932.85 186.13 936.68 195.47 935.72 C 198.18 923.51 193.71 911.47 192.38 899.41 C 191.66 896.39 191.18 893.11 189.24 890.59 C 181.43 895.53 173.93 900.94 166.57 906.52 Z" />
</g>
<g id="#755f56ff">
<path fill="#755f56" opacity="1.00" d=" M 736.96 35.26 C 737.53 35.13 738.67 34.86 739.24 34.73 L 740.11 35.33 C 739.21 36.31 737.78 36.30 736.96 35.26 Z" />
<path fill="#755f56" opacity="1.00" d=" M 765.08 61.24 C 778.13 53.36 794.05 51.07 809.00 53.25 C 817.63 54.57 825.23 59.10 832.57 63.54 C 842.17 73.50 849.05 86.91 848.64 101.01 C 848.39 111.34 849.55 121.82 847.17 131.98 C 843.75 156.32 840.38 180.66 837.00 205.00 C 835.76 213.33 835.00 221.73 833.39 230.00 C 828.78 255.57 826.70 281.54 821.85 307.08 C 820.42 314.33 820.06 321.73 818.82 329.01 C 818.31 330.80 817.71 332.95 816.05 333.97 C 810.03 334.04 804.08 332.59 798.06 332.40 C 774.87 331.06 751.58 331.31 728.38 332.55 C 714.11 334.76 699.67 336.48 685.90 341.08 C 686.10 329.56 688.10 318.17 690.66 306.97 C 692.26 294.60 694.65 282.35 696.61 270.03 C 697.92 262.40 698.61 254.68 699.74 247.02 C 702.76 226.99 706.04 207.00 709.10 186.97 C 714.40 162.97 715.80 138.11 723.61 114.69 C 725.92 108.00 728.56 101.36 732.44 95.41 C 735.50 90.46 739.25 85.96 742.20 80.94 C 747.49 72.12 756.12 65.95 765.08 61.24 Z" />
<path fill="#755f56" opacity="1.00" d=" M 715.99 91.99 C 719.50 85.21 722.15 77.73 727.61 72.18 C 731.35 73.97 735.02 76.02 737.92 79.04 C 729.36 91.23 722.21 104.50 717.71 118.74 C 714.47 118.33 710.39 119.06 707.74 117.09 C 709.74 108.52 711.84 99.83 715.99 91.99 Z" />
<path fill="#755f56" opacity="1.00" d=" M 853.09 224.63 C 852.82 221.01 852.88 217.34 853.76 213.80 C 853.62 217.50 853.48 221.21 853.86 224.90 L 853.09 224.63 Z" />
<path fill="#755f56" opacity="1.00" d=" M 650.70 257.33 C 653.94 257.27 657.18 257.27 660.43 257.22 C 657.29 258.40 653.89 258.14 650.70 257.33 Z" />
<path fill="#755f56" opacity="1.00" d=" M 843.84 282.95 C 842.34 282.54 842.86 280.77 843.70 279.99 C 843.73 280.73 843.80 282.21 843.84 282.95 Z" />
<path fill="#755f56" opacity="1.00" d=" M 637.94 308.36 L 638.72 307.85 L 639.69 308.24 L 639.85 309.11 C 639.37 308.92 638.41 308.55 637.94 308.36 Z" />
<path fill="#755f56" opacity="1.00" d=" M 624.05 316.80 C 628.64 316.13 633.30 315.34 637.95 315.79 C 642.90 317.64 647.42 320.49 652.02 323.09 C 651.63 335.17 649.05 347.07 645.39 358.56 C 639.88 358.44 634.48 357.18 628.98 356.97 C 630.67 362.50 636.15 364.88 640.59 367.80 C 638.69 370.51 636.76 373.20 634.92 375.94 C 632.72 379.10 631.07 382.84 627.66 384.93 C 628.05 388.27 626.53 391.30 625.41 394.33 C 623.61 398.49 623.21 403.55 619.84 406.84 C 609.65 415.51 593.56 413.59 583.75 405.28 C 580.92 402.30 579.92 398.16 578.56 394.41 C 577.75 392.41 577.33 389.93 575.25 388.85 C 576.07 394.60 577.96 400.18 578.23 406.02 C 578.34 410.37 576.91 414.56 575.51 418.63 C 572.24 427.59 568.95 436.63 567.51 446.10 C 567.05 453.56 566.47 462.23 571.76 468.25 C 579.45 475.42 590.89 475.39 600.76 475.15 C 595.84 487.21 589.75 498.79 584.85 510.88 C 581.53 518.25 577.83 525.77 577.43 533.99 C 576.57 552.01 573.00 569.89 573.87 587.98 C 573.82 593.28 578.02 597.04 581.68 600.26 C 587.15 604.83 592.01 610.39 598.60 613.42 C 604.17 615.85 610.41 614.04 616.15 615.59 C 612.10 615.56 608.00 615.24 604.00 615.91 C 595.63 618.24 588.48 623.45 581.96 629.02 C 569.29 639.38 559.42 652.57 549.23 665.25 C 538.71 678.27 528.52 691.80 515.54 702.52 C 507.64 709.24 499.23 715.75 493.65 724.66 C 486.11 737.17 478.40 751.91 482.16 766.92 C 485.59 775.95 494.30 781.38 502.70 785.22 C 502.77 793.69 502.16 802.21 503.45 810.63 C 504.76 819.23 507.45 827.68 511.78 835.25 C 512.93 837.23 513.79 839.37 514.42 841.58 C 506.61 839.19 499.93 834.27 493.28 829.67 C 479.56 820.28 468.04 807.97 458.43 794.47 C 452.78 786.82 448.22 778.46 443.19 770.42 C 439.05 773.49 435.05 776.97 432.56 781.57 C 429.78 786.31 429.22 791.87 428.24 797.18 C 426.26 807.41 425.18 817.79 423.53 828.08 C 422.32 835.30 422.62 842.64 422.29 849.93 C 421.45 873.31 421.82 897.06 427.63 919.86 C 430.61 937.05 438.27 952.98 447.22 967.81 C 449.79 972.29 452.89 976.46 455.24 981.08 C 444.11 980.46 434.23 974.75 423.89 971.18 C 415.98 968.54 409.13 963.65 401.40 960.61 C 389.63 955.73 378.25 949.75 368.21 941.84 C 363.30 937.85 355.99 936.04 353.51 929.65 C 350.64 920.42 350.28 910.58 350.86 900.99 C 351.16 898.91 350.83 896.25 352.93 895.03 C 359.80 889.88 367.33 885.51 373.40 879.37 C 375.29 877.31 376.25 874.64 377.22 872.08 C 382.03 858.86 382.18 844.15 378.43 830.65 C 375.66 820.74 366.52 812.58 356.04 812.23 C 352.07 811.86 348.83 814.60 345.80 816.75 C 334.02 825.90 322.12 835.02 311.83 845.88 C 306.23 851.62 300.05 856.90 295.42 863.49 C 292.48 868.63 292.16 874.72 290.81 880.38 C 279.08 867.99 271.33 852.54 263.31 837.64 C 257.65 826.92 252.47 815.92 248.62 804.41 C 242.34 786.79 241.18 767.93 240.36 749.41 C 239.28 742.27 240.10 735.07 240.57 727.91 C 242.66 704.65 248.35 681.86 255.49 659.67 C 256.77 661.22 257.99 662.82 259.21 664.43 C 259.74 657.15 258.55 649.73 260.52 642.60 C 261.62 636.94 264.08 631.66 267.35 626.95 C 270.76 631.38 273.22 636.74 277.98 639.96 C 282.59 642.79 288.52 643.57 293.61 641.60 C 301.25 639.01 306.83 632.93 312.21 627.23 C 316.20 622.89 319.93 617.91 320.90 611.95 C 316.92 616.01 314.12 621.04 310.29 625.24 C 305.39 631.22 299.10 636.10 291.90 638.97 C 287.42 640.56 281.84 640.24 278.27 636.80 C 272.94 631.62 269.76 624.40 269.11 617.03 C 267.79 604.18 270.77 591.30 275.44 579.39 C 281.05 564.77 283.96 549.28 289.66 534.70 C 296.65 514.96 301.36 494.37 310.33 475.37 C 313.69 468.84 319.05 461.76 327.01 461.26 C 325.32 463.52 323.57 465.73 321.98 468.06 C 326.56 467.91 328.18 462.83 331.80 460.83 C 334.78 458.66 338.66 459.80 341.60 461.43 C 348.60 465.10 353.42 472.08 355.43 479.62 C 357.67 486.52 356.73 493.86 356.57 500.97 C 355.38 521.53 350.69 541.74 344.34 561.28 C 342.94 565.83 340.71 570.28 341.00 575.17 C 347.44 564.09 351.28 551.70 354.42 539.34 C 355.63 534.89 356.01 530.15 358.02 525.96 C 359.49 524.33 361.68 523.61 363.60 522.65 C 375.00 517.58 387.66 516.95 399.95 516.61 C 409.92 516.44 419.77 519.67 428.26 524.77 C 437.29 530.49 441.55 541.07 443.65 551.11 C 444.46 554.27 444.53 558.00 447.10 560.37 C 448.88 548.76 443.08 537.70 436.26 528.76 C 431.89 523.63 426.15 519.74 420.03 517.00 C 413.13 513.87 405.42 514.15 398.06 513.16 C 396.52 512.84 394.53 512.89 393.65 511.32 C 390.96 507.19 390.01 502.26 388.35 497.69 C 383.29 483.55 380.75 468.70 378.35 453.93 C 373.36 430.82 371.26 406.56 376.45 383.30 C 379.11 373.13 382.19 363.03 386.43 353.40 C 388.29 349.02 390.79 344.94 392.64 340.56 C 393.19 340.25 394.28 339.65 394.83 339.34 C 399.97 340.96 405.31 341.67 410.61 342.51 C 416.54 343.55 420.60 348.41 424.60 352.48 C 431.99 360.14 436.98 369.61 442.25 378.75 C 449.40 389.92 455.30 401.81 461.36 413.59 C 466.27 422.72 472.69 431.13 475.91 441.09 C 478.14 447.47 478.18 454.31 478.36 460.98 C 479.50 460.58 480.64 460.18 481.79 459.79 C 481.08 452.18 479.58 444.67 477.66 437.29 C 477.01 434.96 477.65 432.56 478.55 430.40 C 484.39 417.29 491.64 404.80 500.30 393.36 C 509.45 381.12 519.10 368.99 531.05 359.37 C 531.03 359.66 530.98 360.25 530.95 360.54 C 534.31 359.94 537.72 359.74 541.13 359.95 C 542.22 363.04 543.50 366.09 545.30 368.85 C 546.99 368.42 546.10 366.34 546.09 365.16 C 550.32 369.09 556.53 369.46 561.87 370.96 C 561.84 370.47 561.79 369.48 561.77 368.99 C 565.26 369.42 567.63 372.30 570.74 373.47 C 586.36 372.55 601.85 366.89 613.96 356.86 C 618.28 353.23 622.49 349.17 624.96 344.02 C 626.57 340.36 627.26 336.01 625.68 332.22 C 624.37 331.53 621.91 330.27 621.77 332.69 C 616.70 327.38 609.00 325.80 601.93 325.64 C 598.24 325.76 594.82 324.18 591.19 323.85 C 602.12 321.42 613.03 318.81 624.05 316.80 M 313.01 487.02 C 318.91 485.51 318.58 477.87 318.68 473.01 C 315.65 477.08 314.25 482.16 313.01 487.02 M 268.87 681.04 C 273.57 684.23 279.05 687.98 285.03 686.73 C 284.15 685.73 283.31 684.56 281.95 684.23 C 277.68 682.86 273.43 680.99 268.87 681.04 Z" />
<path fill="#755f56" opacity="1.00" d=" M 753.96 334.70 C 775.81 333.38 797.90 334.18 819.38 338.61 C 823.19 339.46 826.52 341.60 829.41 344.17 C 810.98 344.82 792.42 343.16 774.08 345.87 C 739.15 349.53 705.52 363.26 677.48 384.32 C 663.09 394.79 650.41 407.38 638.15 420.21 C 635.07 423.23 632.77 426.89 630.74 430.66 C 624.28 419.53 623.97 405.47 628.58 393.61 C 633.23 380.82 642.57 370.50 652.14 361.14 C 660.83 353.41 672.02 349.36 682.92 345.85 C 698.13 340.63 714.03 337.58 730.05 336.40 C 738.00 335.45 746.05 335.99 753.96 334.70 Z" />
<path fill="#755f56" opacity="1.00" d=" M 581.17 406.85 C 584.33 408.50 588.30 410.21 589.24 414.02 C 586.29 415.37 583.12 416.29 579.86 416.35 C 579.87 413.14 580.07 409.89 581.17 406.85 Z" />
<path fill="#755f56" opacity="1.00" d=" M 609.03 416.18 C 613.28 415.50 616.84 412.89 620.79 411.37 L 621.28 411.70 C 622.70 416.72 623.24 422.01 625.30 426.86 C 626.53 429.84 628.65 432.61 628.42 436.01 C 628.86 442.20 625.54 448.95 629.26 454.66 C 630.72 455.14 631.32 453.48 632.21 452.72 L 632.63 452.65 C 633.43 455.48 636.72 454.75 638.95 455.27 C 635.20 460.80 627.83 462.22 621.57 462.36 C 621.47 463.50 621.40 464.74 620.17 465.26 C 612.29 470.71 602.45 472.80 592.98 472.39 C 587.10 472.65 581.65 470.00 576.58 467.34 C 572.62 465.11 571.32 460.35 571.34 456.09 C 571.44 449.69 570.60 443.06 572.89 436.93 C 574.86 431.29 576.93 425.68 578.93 420.06 C 583.50 419.42 587.72 417.54 592.06 416.10 C 597.70 415.98 603.39 416.99 609.03 416.18 Z" />
<path fill="#755f56" opacity="1.00" d=" M 923.48 434.33 C 923.53 434.40 923.62 434.55 923.66 434.62 C 923.62 434.55 923.53 434.40 923.48 434.33 Z" />
<path fill="#755f56" opacity="1.00" d=" M 785.25 438.22 C 789.20 440.02 793.15 441.86 796.84 444.19 C 796.39 447.18 796.48 450.80 793.89 452.87 C 791.08 454.18 787.74 453.89 784.77 453.38 C 781.42 451.62 782.08 447.35 782.47 444.25 C 782.43 442.80 783.65 442.02 784.76 441.38 C 786.15 440.88 785.12 439.26 785.25 438.22 Z" />
<path fill="#755f56" opacity="1.00" d=" M 850.42 615.52 C 856.48 613.68 862.93 615.10 868.87 616.77 C 871.53 617.63 874.60 618.17 876.52 620.41 C 879.69 623.90 880.80 628.61 882.24 632.97 C 882.51 634.53 884.02 635.27 885.14 636.21 C 880.15 638.80 874.77 640.45 869.65 642.73 C 853.50 649.95 838.34 659.41 824.79 670.78 C 815.07 678.70 806.52 687.89 797.91 696.96 C 789.75 705.69 783.40 716.01 774.76 724.29 C 774.31 721.76 775.08 719.28 775.72 716.86 C 778.34 707.48 782.86 698.79 786.85 689.95 C 790.74 680.58 796.08 671.91 801.30 663.25 C 804.67 657.21 809.68 652.36 814.09 647.09 C 824.84 635.17 836.43 623.62 850.42 615.52 Z" />
<path fill="#755f56" opacity="1.00" d=" M 595.74 637.48 C 603.87 633.44 608.44 625.01 615.98 620.23 C 618.88 620.99 621.57 622.52 623.88 624.43 L 622.37 624.31 C 622.79 627.99 624.55 631.32 625.28 634.92 C 623.42 642.32 620.35 649.36 617.16 656.27 C 612.20 667.26 604.75 676.85 597.18 686.14 C 584.75 701.06 570.37 714.36 554.56 725.64 C 544.51 732.47 533.48 739.37 520.97 739.78 C 515.12 740.28 511.46 735.00 508.21 731.01 C 501.50 739.28 496.68 749.24 495.39 759.88 C 494.76 765.69 495.75 771.52 495.34 777.35 C 489.88 774.60 485.00 769.44 484.92 763.02 C 484.43 750.01 490.19 737.78 497.18 727.16 C 504.89 714.82 516.64 705.93 527.53 696.58 C 534.75 691.06 540.00 683.55 545.65 676.54 C 556.21 662.65 567.53 649.32 579.73 636.84 C 585.87 630.96 592.32 624.94 600.42 621.94 C 594.99 632.32 585.88 640.65 582.05 651.92 C 586.85 646.83 591.27 641.40 595.80 636.08 L 595.74 637.48 Z" />
<path fill="#755f56" opacity="1.00" d=" M 629.05 622.89 C 637.06 625.15 645.43 626.29 653.02 629.87 C 660.68 633.54 668.54 636.81 675.97 640.95 C 688.08 647.78 698.02 657.96 705.74 669.45 C 710.83 676.72 716.14 684.16 718.42 692.88 C 716.88 692.26 715.35 691.64 713.82 691.03 C 713.80 691.52 713.76 692.49 713.74 692.97 C 712.97 691.86 712.16 690.79 711.33 689.76 C 712.27 687.51 711.07 685.10 709.51 683.47 C 703.35 677.40 696.35 672.00 688.28 668.74 C 671.87 661.66 653.44 661.51 636.01 663.98 C 636.13 656.31 636.78 648.61 636.01 640.96 C 635.41 634.40 632.04 628.61 629.05 622.89 Z" />
<path fill="#755f56" opacity="1.00" d=" M 900.19 638.71 C 903.13 639.41 905.84 640.85 908.24 642.69 C 902.07 643.81 895.75 645.04 890.40 648.49 C 884.54 651.69 880.54 657.28 875.09 660.98 C 875.70 658.32 877.54 656.21 879.31 654.22 C 885.31 648.18 892.39 642.69 900.98 641.13 C 900.79 640.52 900.39 639.32 900.19 638.71 Z" />
<path fill="#755f56" opacity="1.00" d=" M 1015.90 771.20 C 1017.29 770.95 1017.95 771.59 1017.88 773.11 C 1016.56 773.15 1015.91 772.51 1015.90 771.20 Z" />
<path fill="#755f56" opacity="1.00" d=" M 415.11 971.75 C 423.15 972.93 430.23 977.60 438.04 979.74 C 440.11 980.49 442.55 980.54 444.36 981.90 C 444.35 983.68 442.11 983.42 440.98 984.01 C 429.06 987.54 417.93 993.26 406.12 997.12 C 405.25 997.46 404.37 997.55 403.46 997.38 C 408.30 989.32 412.42 980.77 415.11 971.75 Z" />
</g>
<g id="#b6a69bc0">
<path fill="#b6a69b" opacity="0.75" d=" M 725.50 42.10 C 726.66 42.86 726.63 43.53 725.40 44.11 C 725.43 43.61 725.48 42.60 725.50 42.10 Z" />
<path fill="#b6a69b" opacity="0.75" d=" M 841.21 298.15 C 841.31 296.58 841.48 295.02 841.67 293.46 C 843.77 294.16 845.84 294.96 847.87 295.88 C 846.30 296.14 844.75 296.22 843.18 296.12 C 842.51 296.79 841.85 297.47 841.21 298.15 Z" />
<path fill="#b6a69b" opacity="0.75" d=" M 652.15 311.06 C 652.89 308.64 653.96 306.36 655.04 304.08 C 654.61 306.58 654.03 309.06 653.41 311.52 C 650.83 311.23 648.25 310.87 645.74 310.19 C 647.87 310.47 650.01 310.76 652.15 311.06 Z" />
<path fill="#b6a69b" opacity="0.75" d=" M 886.47 454.39 C 888.21 450.83 892.09 448.66 895.92 448.22 C 899.69 449.62 901.96 453.36 904.19 456.53 C 907.67 456.55 911.13 458.25 912.41 461.66 C 915.81 470.99 916.89 481.12 916.07 490.99 C 915.82 494.52 914.01 498.09 910.92 499.93 C 907.12 501.95 903.33 498.69 900.17 496.86 C 890.97 490.50 887.98 479.20 884.99 469.08 C 884.09 464.19 884.41 458.96 886.47 454.39 Z" />
</g>
<g id="#fcfaf2ff">
<path fill="#fcfaf2" opacity="1.00" d=" M 692.96 91.58 C 693.59 91.76 694.24 91.96 694.89 92.17 C 694.34 93.86 693.69 95.51 693.00 97.14 C 690.94 95.70 691.03 93.10 692.96 91.58 Z" />
<path fill="#fcfaf2" opacity="1.00" d=" M 868.10 107.82 C 869.62 108.02 871.19 108.11 872.73 108.46 C 870.90 108.60 869.42 109.59 867.98 110.58 C 868.01 109.89 868.07 108.51 868.10 107.82 Z" />
<path fill="#fcfaf2" opacity="1.00" d=" M 858.07 175.08 C 860.06 175.01 862.03 175.39 863.98 175.83 C 862.30 176.42 860.55 176.85 858.82 177.18 C 858.77 177.93 858.66 179.42 858.60 180.16 C 858.28 178.49 858.19 176.77 858.07 175.08 Z" />
<path fill="#fcfaf2" opacity="1.00" d=" M 667.15 208.27 C 668.50 209.10 669.81 209.99 671.16 210.84 C 670.86 212.95 670.60 215.06 670.20 217.16 C 671.08 213.81 669.87 210.39 667.15 208.27 Z" />
<path fill="#fcfaf2" opacity="1.00" d=" M 851.27 235.11 C 853.24 235.32 855.22 235.55 857.19 235.89 C 856.35 235.80 854.68 235.60 853.84 235.50 C 852.85 236.07 851.85 236.63 850.86 237.19 C 850.70 239.55 849.96 241.78 849.08 243.97 C 849.14 240.87 850.29 237.99 851.27 235.11 Z" />
<path fill="#fcfaf2" opacity="1.00" d=" M 654.96 268.32 C 656.38 269.24 658.41 269.85 659.15 271.47 C 658.98 278.04 658.33 284.62 657.34 291.13 C 657.26 285.74 659.27 280.40 658.21 274.98 C 657.86 273.25 657.44 271.52 657.16 269.78 C 656.41 269.29 655.68 268.80 654.96 268.32 Z" />
<path fill="#fcfaf2" opacity="1.00" d=" M 633.43 309.01 C 633.90 310.22 634.35 311.44 634.81 312.66 C 631.26 313.08 627.69 313.33 624.14 313.74 C 626.95 312.68 629.89 312.06 632.87 311.66 C 633.01 311.00 633.29 309.67 633.43 309.01 Z" />
<path fill="#fcfaf2" opacity="1.00" d=" M 835.11 329.96 C 835.63 327.71 836.17 325.46 836.79 323.24 C 837.05 323.71 837.57 324.66 837.83 325.14 C 837.73 326.50 837.65 327.87 837.59 329.24 C 836.75 329.46 835.92 329.70 835.11 329.96 Z" />
<path fill="#fcfaf2" opacity="1.00" d=" M 760.95 417.16 C 776.60 414.46 792.93 418.72 806.20 427.19 C 807.03 427.75 807.82 428.38 808.63 429.01 C 811.29 431.14 813.94 433.31 816.75 435.26 C 818.30 436.38 819.89 437.44 821.41 438.63 C 830.04 448.81 834.57 462.58 833.49 475.91 C 832.98 486.81 825.74 496.06 817.65 502.76 C 809.70 509.42 798.84 510.01 788.95 509.69 C 773.79 508.93 758.15 503.69 747.58 492.41 C 741.72 486.58 736.61 479.76 734.17 471.77 C 737.11 473.80 739.19 476.78 741.97 479.01 C 750.47 486.40 761.58 491.41 773.03 490.57 C 789.71 490.69 804.35 474.52 802.80 457.96 C 802.04 447.41 796.01 437.83 788.01 431.18 C 783.77 427.74 779.18 424.41 773.81 423.07 C 765.95 420.85 757.73 420.85 749.65 420.74 C 753.05 418.62 757.08 417.97 760.95 417.16 Z" />
<path fill="#fcfaf2" opacity="1.00" d=" M 470.20 423.15 C 472.54 423.84 475.41 424.22 477.70 423.18 C 476.29 425.02 475.59 427.54 473.69 428.93 C 472.44 427.05 471.34 425.09 470.20 423.15 Z" />
<path fill="#fcfaf2" opacity="1.00" d=" M 631.72 439.14 C 633.96 440.59 635.43 442.91 637.45 444.63 C 639.51 446.75 642.13 448.27 644.03 450.55 C 640.25 451.34 636.42 451.94 632.63 452.65 L 632.21 452.72 C 631.78 452.74 630.91 452.78 630.48 452.79 C 630.63 448.22 631.36 443.70 631.72 439.14 Z" />
<path fill="#fcfaf2" opacity="1.00" d=" M 204.58 933.79 C 205.34 938.52 202.93 943.81 205.74 948.13 C 209.99 952.02 214.10 956.27 216.66 961.51 C 212.01 957.67 208.84 952.42 204.20 948.59 C 205.33 951.41 206.65 954.22 208.26 956.83 C 205.48 955.11 203.48 952.35 202.69 949.19 C 198.49 947.37 194.05 946.21 189.86 944.37 C 193.93 945.07 197.94 946.08 201.91 947.24 C 203.43 942.90 204.41 938.38 204.58 933.79 Z" />
</g>
<g id="#9b908eff">
<path fill="#9b908e" opacity="1.00" d=" M 572.74 331.68 C 578.84 328.94 585.50 327.50 591.19 323.85 C 594.82 324.18 598.24 325.76 601.93 325.64 C 609.00 325.80 616.70 327.38 621.77 332.69 C 623.35 337.10 623.02 342.46 620.47 346.43 C 619.55 344.03 619.59 341.07 618.02 339.00 C 609.88 333.35 599.29 334.63 590.06 336.15 C 578.57 339.41 567.36 345.37 559.76 354.78 C 556.91 358.93 556.34 366.69 561.77 368.99 C 561.79 369.48 561.84 370.47 561.87 370.96 C 556.53 369.46 550.32 369.09 546.09 365.16 C 544.86 361.19 544.03 357.12 543.39 353.03 C 542.50 353.37 541.62 353.74 540.76 354.14 C 540.10 356.04 540.83 358.05 541.13 359.95 C 537.72 359.74 534.31 359.94 530.95 360.54 C 530.98 360.25 531.03 359.66 531.05 359.37 C 534.36 356.88 537.44 354.08 540.88 351.78 C 542.16 350.67 543.68 352.02 545.04 352.26 C 552.17 342.95 562.51 337.00 572.74 331.68 Z" />
<path fill="#9b908e" opacity="1.00" d=" M 809.15 425.78 C 812.06 427.46 815.52 428.93 817.28 431.95 C 817.15 432.77 816.88 434.43 816.75 435.26 C 813.94 433.31 811.29 431.14 808.63 429.01 C 808.76 428.20 809.02 426.59 809.15 425.78 Z" />
<path fill="#9b908e" opacity="1.00" d=" M 355.99 937.79 C 357.80 938.71 359.46 939.88 361.09 941.10 C 360.79 943.52 360.77 946.16 358.99 948.07 C 357.04 945.01 356.76 941.25 355.99 937.79 Z" />
</g>
<g id="#dea47fff">
<path fill="#dea47f" opacity="1.00" d=" M 774.08 345.87 C 792.42 343.16 810.98 344.82 829.41 344.17 C 834.97 346.83 839.88 350.63 844.82 354.26 C 865.05 369.07 882.33 387.37 900.03 405.01 C 912.80 418.22 920.33 435.22 928.75 451.29 C 938.22 468.81 945.32 487.59 950.02 506.94 C 952.88 519.42 955.49 532.08 955.71 544.93 C 956.28 555.93 957.47 566.97 956.57 577.98 C 955.98 591.40 955.83 604.92 953.21 618.15 C 947.03 653.34 934.88 687.12 921.07 719.96 C 918.90 724.77 915.56 728.99 913.85 734.02 C 913.14 735.94 912.73 737.98 911.87 739.86 C 910.23 740.45 908.62 739.24 907.05 738.93 C 894.03 766.85 878.15 793.62 858.00 817.01 C 845.83 831.13 832.48 844.18 818.70 856.71 C 806.18 868.52 791.84 878.19 777.20 887.16 C 771.34 891.06 764.84 894.02 759.32 898.39 C 765.48 897.67 770.80 894.26 776.11 891.33 C 766.52 901.75 755.03 910.25 744.03 919.10 C 716.96 940.22 687.45 958.31 655.88 971.87 C 608.42 992.54 555.19 1000.37 503.89 992.72 C 487.40 990.30 470.48 988.27 455.24 981.08 C 452.89 976.46 449.79 972.29 447.22 967.81 C 438.27 952.98 430.61 937.05 427.63 919.86 C 421.82 897.06 421.45 873.31 422.29 849.93 C 422.62 842.64 422.32 835.30 423.53 828.08 C 425.18 817.79 426.26 807.41 428.24 797.18 C 429.22 791.87 429.78 786.31 432.56 781.57 C 435.05 776.97 439.05 773.49 443.19 770.42 C 448.22 778.46 452.78 786.82 458.43 794.47 C 468.04 807.97 479.56 820.28 493.28 829.67 C 499.93 834.27 506.61 839.19 514.42 841.58 C 519.73 844.55 524.47 848.69 530.40 850.44 C 533.87 851.37 537.75 851.39 541.08 849.89 C 528.29 850.13 517.57 840.34 512.84 829.09 C 507.20 815.28 504.79 800.12 505.99 785.26 C 509.74 785.24 513.50 785.11 517.21 784.53 C 509.93 782.13 501.83 781.81 495.34 777.35 C 495.75 771.52 494.76 765.69 495.39 759.88 C 496.68 749.24 501.50 739.28 508.21 731.01 C 511.46 735.00 515.12 740.28 520.97 739.78 C 533.48 739.37 544.51 732.47 554.56 725.64 C 570.37 714.36 584.75 701.06 597.18 686.14 C 604.75 676.85 612.20 667.26 617.16 656.27 C 620.35 649.36 623.42 642.32 625.28 634.92 C 624.55 631.32 622.79 627.99 622.37 624.31 L 623.88 624.43 C 630.57 630.63 633.05 640.08 632.72 648.96 C 632.80 663.74 628.04 678.13 621.06 691.03 C 614.04 704.44 604.22 716.23 597.92 730.05 C 607.80 720.17 614.50 707.74 621.90 696.03 C 626.74 688.59 629.27 680.00 633.09 672.06 C 633.81 670.81 634.33 668.95 636.07 668.88 C 656.48 664.58 678.55 666.91 697.00 676.91 C 702.77 679.97 706.59 685.45 711.33 689.76 C 712.16 690.79 712.97 691.86 713.74 692.97 C 717.74 701.48 722.75 709.77 724.28 719.19 C 725.06 726.59 725.20 734.05 725.43 741.50 C 726.22 741.71 727.81 742.15 728.60 742.36 C 728.86 725.35 724.47 708.65 718.42 692.88 C 716.14 684.16 710.83 676.72 705.74 669.45 C 698.02 657.96 688.08 647.78 675.97 640.95 C 668.54 636.81 660.68 633.54 653.02 629.87 C 645.43 626.29 637.06 625.15 629.05 622.89 C 624.96 620.12 620.81 617.32 616.15 615.59 C 610.41 614.04 604.17 615.85 598.60 613.42 C 592.01 610.39 587.15 604.83 581.68 600.26 C 578.02 597.04 573.82 593.28 573.87 587.98 C 573.00 569.89 576.57 552.01 577.43 533.99 C 577.83 525.77 581.53 518.25 584.85 510.88 C 589.75 498.79 595.84 487.21 600.76 475.15 C 618.19 472.00 633.96 463.32 649.02 454.38 C 656.86 458.49 665.02 462.78 674.08 463.09 C 681.37 463.74 690.36 463.13 694.76 456.34 C 688.25 457.90 681.82 460.85 674.98 460.00 C 656.67 458.10 640.23 446.11 630.74 430.66 C 632.77 426.89 635.07 423.23 638.15 420.21 C 650.41 407.38 663.09 394.79 677.48 384.32 C 705.52 363.26 739.15 349.53 774.08 345.87 M 744.01 422.05 C 735.57 428.15 727.98 437.11 727.33 447.94 C 725.96 461.03 730.80 474.12 738.66 484.44 C 744.28 490.40 749.34 497.12 756.42 501.48 C 768.76 510.85 784.74 514.23 800.00 513.10 C 804.28 512.70 808.72 512.53 812.72 510.73 C 820.06 507.52 825.65 501.41 830.17 494.96 C 833.85 489.68 835.77 483.32 836.13 476.92 C 836.74 466.37 833.48 456.01 828.73 446.70 C 829.26 446.64 830.31 446.53 830.83 446.47 C 826.76 445.35 824.89 441.63 822.62 438.46 C 822.32 438.50 821.71 438.59 821.41 438.63 C 819.89 437.44 818.30 436.38 816.75 435.26 C 816.88 434.43 817.15 432.77 817.28 431.95 C 815.52 428.93 812.06 427.46 809.15 425.78 C 809.02 426.59 808.76 428.20 808.63 429.01 C 807.82 428.38 807.03 427.75 806.20 427.19 L 807.74 427.77 C 807.16 426.23 805.93 425.16 804.57 424.38 C 795.07 419.29 784.85 415.10 774.02 414.14 C 763.47 412.90 752.56 415.73 744.01 422.05 M 886.47 454.39 C 884.41 458.96 884.09 464.19 884.99 469.08 C 887.98 479.20 890.97 490.50 900.17 496.86 C 903.33 498.69 907.12 501.95 910.92 499.93 C 914.01 498.09 915.82 494.52 916.07 490.99 C 916.89 481.12 915.81 470.99 912.41 461.66 C 911.13 458.25 907.67 456.55 904.19 456.53 C 901.96 453.36 899.69 449.62 895.92 448.22 C 892.09 448.66 888.21 450.83 886.47 454.39 M 850.42 615.52 C 836.43 623.62 824.84 635.17 814.09 647.09 C 809.68 652.36 804.67 657.21 801.30 663.25 C 796.08 671.91 790.74 680.58 786.85 689.95 C 782.86 698.79 778.34 707.48 775.72 716.86 C 775.08 719.28 774.31 721.76 774.76 724.29 C 769.00 733.35 763.83 742.85 760.05 752.92 C 758.97 755.03 759.55 757.39 759.85 759.61 L 760.83 759.10 C 764.24 751.14 766.15 742.40 771.27 735.26 C 789.33 710.40 810.53 687.69 834.79 668.79 C 848.65 658.29 864.05 649.99 879.99 643.13 C 886.28 640.19 893.20 638.31 900.19 638.71 C 900.39 639.32 900.79 640.52 900.98 641.13 C 892.39 642.69 885.31 648.18 879.31 654.22 C 877.54 656.21 875.70 658.32 875.09 660.98 C 880.54 657.28 884.54 651.69 890.40 648.49 C 895.75 645.04 902.07 643.81 908.24 642.69 C 917.69 649.58 922.85 661.38 922.70 672.95 C 924.35 695.08 916.26 716.20 908.34 736.42 C 909.21 736.64 911.17 737.51 911.53 736.13 C 912.31 732.21 915.54 729.51 916.87 725.82 C 925.76 705.32 929.96 682.03 925.03 659.97 C 922.09 649.11 914.03 639.33 903.21 635.70 C 897.35 633.65 890.92 634.47 885.14 636.21 C 884.02 635.27 882.51 634.53 882.24 632.97 C 880.80 628.61 879.69 623.90 876.52 620.41 C 874.60 618.17 871.53 617.63 868.87 616.77 C 862.93 615.10 856.48 613.68 850.42 615.52 M 556.43 771.40 C 553.88 773.37 550.84 774.85 548.96 777.56 C 556.72 773.95 564.03 769.24 570.11 763.19 C 572.26 760.99 574.54 758.79 575.82 755.94 C 569.82 761.64 563.29 766.76 556.43 771.40 Z" />
<path fill="#dea47f" opacity="1.00" d=" M 600.42 621.94 C 603.85 619.84 607.89 619.29 611.79 618.66 C 606.88 624.84 600.66 629.84 595.80 636.08 C 591.27 641.40 586.85 646.83 582.05 651.92 C 585.88 640.65 594.99 632.32 600.42 621.94 Z" />
</g>
</svg>
